<svg xmlns="http://www.w3.org/2000/svg" version="1.1" xmlns:xlink="http://www.w3.org/1999/xlink" xmlns:svgjs="http://svgjs.dev/svgjs" width="1000" height="239" viewBox="0 0 1000 239"><g transform="matrix(1,0,0,1,-0.606060494124165,0.40148473874168644)"><svg viewBox="0 0 396 95" data-background-color="#333366" preserveAspectRatio="xMidYMid meet" height="239" width="1000" xmlns="http://www.w3.org/2000/svg" xmlns:xlink="http://www.w3.org/1999/xlink"><g id="tight-bounds" transform="matrix(1,0,0,1,0.24000004432690503,-0.15958544408729836)"><svg viewBox="0 0 395.52 95.31917142810595" height="95.31917142810595" width="395.52"><g><svg viewBox="0 0 555.7925449057391 133.94438932628796" height="95.31917142810595" width="395.52"><g transform="matrix(1,0,0,1,0,18.511851202113604)"><svg viewBox="0 0 395.52 96.92068692206075" height="96.92068692206075" width="395.52"><g id="textblocktransform"><svg viewBox="0 0 395.52 96.92068692206075" height="96.92068692206075" width="395.52" id="textblock"><g><svg viewBox="0 0 395.52 96.92068692206075" height="96.92068692206075" width="395.52"><g transform="matrix(1,0,0,1,0,0)"><svg width="395.52" viewBox="3.450000047683716 -36.5 151.38999938964844 37.099998474121094" height="96.92068692206075" data-palette-color="#ffffff"><path d="M22.1 0L12.7 0Q9.85 0 7.78-1.23 5.7-2.45 4.58-4.58 3.45-6.7 3.45-9.35L3.45-9.35 3.45-35 8.25-35 8.25-8.75Q8.25-6.8 9.47-5.53 10.7-4.25 12.7-4.25L12.7-4.25 22.1-4.25 22.1 0ZM46.75 0L40.2 0Q36 0 32.75-1.58 29.5-3.15 27.67-6.03 25.85-8.9 25.85-12.75L25.85-12.75Q25.85-16.55 27.4-19.58 28.95-22.6 31.7-24.35 34.45-26.1 38.1-26.1L38.1-26.1Q42.05-26.1 44.67-24.4 47.3-22.7 48.6-19.83 49.9-16.95 49.9-13.4L49.9-13.4Q49.9-12.85 49.87-12.25 49.85-11.65 49.75-11.2L49.75-11.2 30.75-11.2Q31-8.85 32.3-7.23 33.6-5.6 35.62-4.78 37.65-3.95 40.1-3.95L40.1-3.95 46.75-3.95 46.75 0ZM30.7-14.45L30.7-14.45 45.25-14.45Q45.25-15.4 45.05-16.48 44.85-17.55 44.35-18.57 43.85-19.6 43.02-20.43 42.2-21.25 40.97-21.75 39.75-22.25 38.1-22.25L38.1-22.25Q36.35-22.25 35.02-21.58 33.7-20.9 32.75-19.78 31.8-18.65 31.3-17.25 30.8-15.85 30.7-14.45ZM67.75 0.6L67.75 0.6Q63.84 0.6 60.84-1.18 57.84-2.95 56.09-5.98 54.34-9 54.34-12.75L54.34-12.75Q54.34-16.5 56.09-19.53 57.84-22.55 60.84-24.33 63.84-26.1 67.75-26.1L67.75-26.1Q71.64-26.1 74.67-24.33 77.69-22.55 79.42-19.53 81.14-16.5 81.14-12.75L81.14-12.75Q81.14-9 79.42-5.98 77.69-2.95 74.67-1.18 71.64 0.6 67.75 0.6ZM67.75-3.35L67.75-3.35Q70.39-3.35 72.34-4.6 74.3-5.85 75.39-7.98 76.5-10.1 76.5-12.75L76.5-12.75Q76.5-15.4 75.39-17.53 74.3-19.65 72.34-20.9 70.39-22.15 67.75-22.15L67.75-22.15Q65.14-22.15 63.17-20.9 61.2-19.65 60.09-17.53 58.99-15.4 58.99-12.75L58.99-12.75Q58.99-10.1 60.09-7.98 61.2-5.85 63.17-4.6 65.14-3.35 67.75-3.35ZM91.64 0L87.04 0 87.04-14.75Q87.04-18.15 88.57-20.7 90.09-23.25 92.79-24.68 95.49-26.1 98.94-26.1L98.94-26.1Q102.44-26.1 105.12-24.68 107.79-23.25 109.32-20.7 110.84-18.15 110.84-14.75L110.84-14.75 110.84 0 106.24 0 106.24-14.7Q106.24-17 105.22-18.68 104.19-20.35 102.52-21.25 100.84-22.15 98.94-22.15L98.94-22.15Q97.04-22.15 95.37-21.25 93.69-20.35 92.67-18.68 91.64-17 91.64-14.7L91.64-14.7 91.64 0ZM122.79 0L118.14 0 118.14-25.5 122.79-25.5 122.79 0ZM120.49-29.55L120.49-29.55Q119.24-29.55 118.32-30.48 117.39-31.4 117.39-32.65L117.39-32.65Q117.39-33.9 118.32-34.83 119.24-35.75 120.49-35.75L120.49-35.75Q121.74-35.75 122.67-34.83 123.59-33.9 123.59-32.65L123.59-32.65Q123.59-31.4 122.67-30.48 121.74-29.55 120.49-29.55ZM141.79 0.6L141.79 0.6Q145.49 0.6 148.44-1 151.39-2.6 153.11-5.63 154.84-8.65 154.84-12.9L154.84-12.9 154.84-36.5 150.24-36.5 150.24-20.95 150.14-20.95Q149.29-22.5 147.91-23.65 146.54-24.8 144.76-25.45 142.99-26.1 141.04-26.1L141.04-26.1Q137.49-26.1 134.69-24.5 131.89-22.9 130.26-19.98 128.64-17.05 128.64-13.05L128.64-13.05Q128.64-9.9 129.61-7.38 130.59-4.85 132.34-3.05 134.09-1.25 136.49-0.33 138.89 0.6 141.79 0.6ZM141.79-3.35L141.79-3.35Q139.44-3.35 137.51-4.5 135.59-5.65 134.44-7.75 133.29-9.85 133.29-12.75L133.29-12.75Q133.29-15.55 134.41-17.65 135.54-19.75 137.44-20.95 139.34-22.15 141.74-22.15L141.74-22.15Q144.09-22.15 146.01-21 147.94-19.85 149.06-17.73 150.19-15.6 150.19-12.7L150.19-12.7Q150.19-9.85 149.06-7.75 147.94-5.65 146.01-4.5 144.09-3.35 141.79-3.35Z" opacity="1" transform="matrix(1,0,0,1,0,0)" fill="#ffffff" class="undefined-text-0" data-fill-palette-color="primary" id="text-0"></path></svg></g></svg></g></svg></g></svg></g><g transform="matrix(1,0,0,1,418.4006480858124,0)"><svg viewBox="0 0 137.3918968199267 133.94438932628796" height="133.94438932628796" width="137.3918968199267"><g><svg xmlns="http://www.w3.org/2000/svg" data-name="Layer 1" viewBox="13.90999984741211 14.640000343322754 62.17000198364258 60.61000061035156" x="0" y="0" height="133.94438932628796" width="137.3918968199267" class="icon-icon-0" data-fill-palette-color="accent" id="icon-0"><path d="M69.93 26.65L45 14.64l-24.93 12-6.16 27L31.17 75.25H58.83L76.08 53.62ZM57.87 73.25H32.13l-16-20.12L21.81 28 45 16.86 68.19 28l5.73 25.09Z" fill="#ffffff" data-fill-palette-color="accent"></path><path d="M20.94 51.21a1 1 0 0 0-0.9-0.28l-0.19 0.06-0.17 0.09a0.87 0.87 0 0 0-0.15 0.13 0.92 0.92 0 0 0-0.29 0.7 1 1 0 0 0 0.07 0.39 1 1 0 0 0 0.93 0.61 1 1 0 0 0 0.7-0.29 0.87 0.87 0 0 0 0.22-0.32 1 1 0 0 0 0.08-0.39 1 1 0 0 0-0.08-0.38A0.87 0.87 0 0 0 20.94 51.21Z" fill="#ffffff" data-fill-palette-color="accent"></path><path d="M42 44.8a1 1 0 0 0 0.27 2 0.83 0.83 0 0 0 0.27 0A1 1 0 1 0 42 44.8Z" fill="#ffffff" data-fill-palette-color="accent"></path><path d="M36.5 46.34a1 1 0 0 0 0.27 2 0.84 0.84 0 0 0 0.27 0 1 1 0 0 0-0.54-1.92Z" fill="#ffffff" data-fill-palette-color="accent"></path><path d="M52 40.9a1 1 0 0 0 0.8-1.59 1 1 0 0 0-1.61 1.18A1 1 0 0 0 52 40.9Z" fill="#ffffff" data-fill-palette-color="accent"></path><path d="M25.48 49.4a1 1 0 0 0 0.27 2 1.28 1.28 0 0 0 0.27 0 1 1 0 0 0-0.54-1.93Z" fill="#ffffff" data-fill-palette-color="accent"></path><path d="M31 47.86a1 1 0 0 0-0.69 1.24 1 1 0 0 0 1 0.73 0.87 0.87 0 0 0 0.27 0A1 1 0 0 0 31 47.86Z" fill="#ffffff" data-fill-palette-color="accent"></path><path d="M47.34 44.29a1 1 0 0 0 0.59-0.2 1 1 0 0 0 0.21-1.39 1 1 0 1 0-0.8 1.59Z" fill="#ffffff" data-fill-palette-color="accent"></path><path d="M60.58 32.31a1 1 0 0 0 0.59 1.81A1 1 0 0 0 62 32.54 1 1 0 0 0 60.58 32.31Z" fill="#ffffff" data-fill-palette-color="accent"></path><path d="M56 35.71a1 1 0 0 0-0.22 1.4 1 1 0 0 0 0.81 0.41A1 1 0 1 0 56 35.71Z" fill="#ffffff" data-fill-palette-color="accent"></path><path d="M65.4 28.81a1 1 0 0 0-0.32 0.22 1 1 0 0 0-0.3 0.71 1 1 0 0 0 0.3 0.7 1 1 0 0 0 0.7 0.3A1 1 0 0 0 66.49 29 1 1 0 0 0 65.4 28.81Z" fill="#ffffff" data-fill-palette-color="accent"></path><path d="M57.14 69.35a1 1 0 0 0-0.9-0.28 0.67 0.67 0 0 0-0.19 0.06 0.88 0.88 0 0 0-0.17 0.09 0.64 0.64 0 0 0-0.15 0.13 1 1 0 0 0-0.22 0.32 1 1 0 0 0 0.22 1.09A1 1 0 0 0 56 71 1 1 0 0 0 57.43 70a1 1 0 0 0-0.07-0.38A1 1 0 0 0 57.14 69.35Z" fill="#ffffff" data-fill-palette-color="accent"></path><path d="M51.91 60.14a1 1 0 0 0-0.5 1.33 1 1 0 0 0 0.92 0.58 1 1 0 1 0-0.42-1.91Z" fill="#ffffff" data-fill-palette-color="accent"></path><path d="M54 64.64a1 1 0 0 0 0.42 1.91 1.07 1.07 0 0 0 0.42-0.09 1 1 0 0 0 0.49-1.32A1 1 0 0 0 54 64.64Z" fill="#ffffff" data-fill-palette-color="accent"></path><path d="M49.85 55.64a1 1 0 0 0 0.42 1.91 1.06 1.06 0 0 0 0.42-0.09 1 1 0 1 0-0.84-1.82Z" fill="#ffffff" data-fill-palette-color="accent"></path><path d="M47.8 51.14A1 1 0 0 0 48.22 53a1 1 0 0 0 0.41-0.09 1 1 0 0 0 0.49-1.33A1 1 0 0 0 47.8 51.14Z" fill="#ffffff" data-fill-palette-color="accent"></path><path d="M46.87 46.84a1 1 0 0 0-1.09-0.21 1.15 1.15 0 0 0-0.33 0.21 1 1 0 0 0-0.21 0.33 0.94 0.94 0 0 0 0 0.76 0.9 0.9 0 0 0 0.54 0.54 1 1 0 0 0 0.38 0.08 1 1 0 0 0 0.38-0.08 1 1 0 0 0 0.33-0.21 1.2 1.2 0 0 0 0.22-0.33 1.06 1.06 0 0 0 0-0.76A1.44 1.44 0 0 0 46.87 46.84Z" fill="#ffffff" data-fill-palette-color="accent"></path></svg></g></svg></g></svg></g><defs></defs></svg><rect width="395.52" height="95.31917142810595" fill="none" stroke="none" visibility="hidden"></rect></g></svg></g></svg>